<svg xmlns="http://www.w3.org/2000/svg" xmlns:xlink="http://www.w3.org/1999/xlink" viewBox="0 0 255.51 165.17"><defs><style>.cls-1{fill:none;}.cls-2{clip-path:url(#clip-path);}.cls-3{fill:#21a355;}</style><clipPath id="clip-path" transform="translate(-37.65 -91.81)"><rect class="cls-1" width="287.71" height="220.92"/></clipPath></defs><g id="Слой_2" data-name="Слой 2"><g id="Layer_2" data-name="Layer 2"><g class="cls-2"><path class="cls-3" d="M235.74,178.81c11.68,4.14,24.87-3,24.87-3s-5.74-13.87-17.42-18-24.88,3-24.88,3S224.06,174.67,235.74,178.81Z" transform="translate(-37.65 -91.81)"/><path class="cls-3" d="M197.17,102.66c-7.34,9.64-4.61,24.06-4.61,24.06s14.63-1.21,22-10.85,4.61-24.06,4.61-24.06S204.51,93,197.17,102.66Z" transform="translate(-37.65 -91.81)"/><path class="cls-3" d="M145.93,187.87c-10.31-7.6-25.51-4.48-25.51-4.48s1.52,15.44,11.83,23,25.51,4.48,25.51,4.48S156.24,195.47,145.93,187.87Z" transform="translate(-37.65 -91.81)"/><path class="cls-3" d="M43.63,232.35l-6-4.81c.92-1.15,23-28.3,64.07-53.11a273.4,273.4,0,0,1,76.33-31.73,268.47,268.47,0,0,1,102.68-4.59l12.43,1.8L291,147.36l-11.37-1.64a260.65,260.65,0,0,0-99.75,4.44A265.68,265.68,0,0,0,105.69,181C65.75,205.12,43.85,232.08,43.63,232.35Z" transform="translate(-37.65 -91.81)"/><path class="cls-3" d="M269.42,257c-27.9-47-64.93-68.52-91.09-78.34-28.27-10.61-50-10.16-50.25-10.15l-.21-7.68c.95,0,23.5-.49,53.16,10.64,27.31,10.25,66,32.73,95,81.61Z" transform="translate(-37.65 -91.81)"/></g></g></g></svg>